# xmcd CD database file generated by OrangeCD 5.2
#
# Track frame offsets:
#	150
#	10735
#	33674
#	50344
#	74864
#	97682
#	117293
#	134088
#	148949
#	162102
#	181966
#	203882
#
# Disc length: 2996 seconds
#
# Revision: 0
# Processed by: cddbd v1.5.1PL0 Copyright (c) Steve Scherf et al.
# Submitted via: OrangeCD 5.2
#
DISCID=af0bb20c
DTITLE=The Black Crowes - Live At The Backroom, Dallas, TX
DYEAR=1900
DGENRE=
TTITLE0=Thick 'n Thin
TTITLE1=You're Wrong
TTITLE2=Twice As Hard
TTITLE3=Kick The Devil Outta Me
TTITLE4=Sister Luc
TTITLE5=Jealous Guy
TTITLE6=Could I've Been So Blind
TTITLE7=Hard To Handle
TTITLE8=Waitin' Guilty
TTITLE9=Stare It Cold
TTITLE10=Jealous Again
TTITLE11=Struttin' Blues
EXTD=
EXTT0=
EXTT1=
EXTT2=
EXTT3=
EXTT4=
EXTT5=
EXTT6=
EXTT7=
EXTT8=
EXTT9=
EXTT10=
EXTT11=
PLAYORDER=
